<svg width="110" height="110" viewBox="0 0 110 110" fill="none" xmlns="http://www.w3.org/2000/svg">
<g id="Frame 1">
<g id="lines">
<path id="90" d="M55 55V5" stroke="black"/>
<path id="0" d="M55 55H105" stroke="black"/>
<path id="-90" d="M55 55V105" stroke="black"/>
<path id="180" d="M55 55H5" stroke="black"/>
<path id="30" d="M55 55L100 33" stroke="black"/>
<path id="120" d="M55 55L28 13" stroke="black"/>
<path id="60" d="M55 55L82 13" stroke="black"/>
<path id="150" d="M55 55L10 33.311" stroke="black"/>
<path id="-150" d="M55 55L10 77" stroke="black"/>
<path id="-120" d="M55 55L28 97" stroke="black"/>
<path id="-60" d="M55 55L82 97" stroke="black"/>
<path id="-30" d="M55 55L100 77" stroke="black"/>
</g>
<g id="numbers">
<path id="top left" d="M6.9858 5.63636V10H6.45739V6.19034H6.43182L5.36648 6.89773V6.3608L6.45739 5.63636H6.9858Z" fill="black"/>
<path id="top mid" d="M10.875 10.0597C10.554 10.0597 10.2805 9.9723 10.0547 9.79759C9.82884 9.62145 9.65625 9.36648 9.53693 9.03267C9.41761 8.69744 9.35795 8.29261 9.35795 7.81818C9.35795 7.34659 9.41761 6.94389 9.53693 6.61009C9.65767 6.27486 9.83097 6.01918 10.0568 5.84304C10.2841 5.66548 10.5568 5.5767 10.875 5.5767C11.1932 5.5767 11.4652 5.66548 11.6911 5.84304C11.9183 6.01918 12.0916 6.27486 12.2109 6.61009C12.3317 6.94389 12.392 7.34659 12.392 7.81818C12.392 8.29261 12.3324 8.69744 12.2131 9.03267C12.0938 9.36648 11.9212 9.62145 11.6953 9.79759C11.4695 9.9723 11.196 10.0597 10.875 10.0597ZM10.875 9.59091C11.1932 9.59091 11.4403 9.4375 11.6165 9.13068C11.7926 8.82386 11.8807 8.38636 11.8807 7.81818C11.8807 7.44034 11.8402 7.11861 11.7592 6.85298C11.6797 6.58736 11.5646 6.38494 11.4141 6.24574C11.2649 6.10653 11.0852 6.03693 10.875 6.03693C10.5597 6.03693 10.3132 6.19247 10.1357 6.50355C9.9581 6.81321 9.86932 7.25142 9.86932 7.81818C9.86932 8.19602 9.90909 8.51705 9.98864 8.78125C10.0682 9.04545 10.1825 9.24645 10.3317 9.38423C10.4822 9.52202 10.6634 9.59091 10.875 9.59091Z" fill="black"/>
<path id="mid left" d="M6.875 17.0597C6.55398 17.0597 6.28054 16.9723 6.05469 16.7976C5.82884 16.6214 5.65625 16.3665 5.53693 16.0327C5.41761 15.6974 5.35795 15.2926 5.35795 14.8182C5.35795 14.3466 5.41761 13.9439 5.53693 13.6101C5.65767 13.2749 5.83097 13.0192 6.05682 12.843C6.28409 12.6655 6.55682 12.5767 6.875 12.5767C7.19318 12.5767 7.4652 12.6655 7.69105 12.843C7.91832 13.0192 8.09162 13.2749 8.21094 13.6101C8.33168 13.9439 8.39205 14.3466 8.39205 14.8182C8.39205 15.2926 8.33239 15.6974 8.21307 16.0327C8.09375 16.3665 7.92116 16.6214 7.69531 16.7976C7.46946 16.9723 7.19602 17.0597 6.875 17.0597ZM6.875 16.5909C7.19318 16.5909 7.44034 16.4375 7.61648 16.1307C7.79261 15.8239 7.88068 15.3864 7.88068 14.8182C7.88068 14.4403 7.8402 14.1186 7.75923 13.853C7.67969 13.5874 7.56463 13.3849 7.41406 13.2457C7.26491 13.1065 7.08523 13.0369 6.875 13.0369C6.55966 13.0369 6.31321 13.1925 6.13565 13.5036C5.9581 13.8132 5.86932 14.2514 5.86932 14.8182C5.86932 15.196 5.90909 15.517 5.98864 15.7812C6.06818 16.0455 6.18253 16.2464 6.33168 16.3842C6.48224 16.522 6.66335 16.5909 6.875 16.5909Z" fill="black"/>
<path id="top right" d="M15.9858 5.63636V10H15.4574V6.19034H15.4318L14.3665 6.89773V6.3608L15.4574 5.63636H15.9858Z" fill="black"/>
<path id="bot left" d="M6.9858 19.6364V24H6.45739V20.1903H6.43182L5.36648 20.8977V20.3608L6.45739 19.6364H6.9858Z" fill="black"/>
<path id="bot mid" d="M10.875 24.0597C10.554 24.0597 10.2805 23.9723 10.0547 23.7976C9.82884 23.6214 9.65625 23.3665 9.53693 23.0327C9.41761 22.6974 9.35795 22.2926 9.35795 21.8182C9.35795 21.3466 9.41761 20.9439 9.53693 20.6101C9.65767 20.2749 9.83097 20.0192 10.0568 19.843C10.2841 19.6655 10.5568 19.5767 10.875 19.5767C11.1932 19.5767 11.4652 19.6655 11.6911 19.843C11.9183 20.0192 12.0916 20.2749 12.2109 20.6101C12.3317 20.9439 12.392 21.3466 12.392 21.8182C12.392 22.2926 12.3324 22.6974 12.2131 23.0327C12.0938 23.3665 11.9212 23.6214 11.6953 23.7976C11.4695 23.9723 11.196 24.0597 10.875 24.0597ZM10.875 23.5909C11.1932 23.5909 11.4403 23.4375 11.6165 23.1307C11.7926 22.8239 11.8807 22.3864 11.8807 21.8182C11.8807 21.4403 11.8402 21.1186 11.7592 20.853C11.6797 20.5874 11.5646 20.3849 11.4141 20.2457C11.2649 20.1065 11.0852 20.0369 10.875 20.0369C10.5597 20.0369 10.3132 20.1925 10.1357 20.5036C9.9581 20.8132 9.86932 21.2514 9.86932 21.8182C9.86932 22.196 9.90909 22.517 9.98864 22.7812C10.0682 23.0455 10.1825 23.2464 10.3317 23.3842C10.4822 23.522 10.6634 23.5909 10.875 23.5909Z" fill="black"/>
<path id="bot right" d="M15.9858 19.6364V24H15.4574V20.1903H15.4318L14.3665 20.8977V20.3608L15.4574 19.6364H15.9858Z" fill="black"/>
<path id="mid mid" d="M10.9858 12.6364V17H10.4574V13.1903H10.4318L9.36648 13.8977V13.3608L10.4574 12.6364H10.9858Z" fill="black"/>
<path id="mid right" d="M14.875 17.0597C14.554 17.0597 14.2805 16.9723 14.0547 16.7976C13.8288 16.6214 13.6563 16.3665 13.5369 16.0327C13.4176 15.6974 13.358 15.2926 13.358 14.8182C13.358 14.3466 13.4176 13.9439 13.5369 13.6101C13.6577 13.2749 13.831 13.0192 14.0568 12.843C14.2841 12.6655 14.5568 12.5767 14.875 12.5767C15.1932 12.5767 15.4652 12.6655 15.6911 12.843C15.9183 13.0192 16.0916 13.2749 16.2109 13.6101C16.3317 13.9439 16.392 14.3466 16.392 14.8182C16.392 15.2926 16.3324 15.6974 16.2131 16.0327C16.0938 16.3665 15.9212 16.6214 15.6953 16.7976C15.4695 16.9723 15.196 17.0597 14.875 17.0597ZM14.875 16.5909C15.1932 16.5909 15.4403 16.4375 15.6165 16.1307C15.7926 15.8239 15.8807 15.3864 15.8807 14.8182C15.8807 14.4403 15.8402 14.1186 15.7592 13.853C15.6797 13.5874 15.5646 13.3849 15.4141 13.2457C15.2649 13.1065 15.0852 13.0369 14.875 13.0369C14.5597 13.0369 14.3132 13.1925 14.1357 13.5036C13.9581 13.8132 13.8693 14.2514 13.8693 14.8182C13.8693 15.196 13.9091 15.517 13.9886 15.7812C14.0682 16.0455 14.1825 16.2464 14.3317 16.3842C14.4822 16.522 14.6634 16.5909 14.875 16.5909Z" fill="black"/>
</g>
<g id="side">
<path id="japan" d="M100.336 107.877C97.4585 107.481 96.4769 106.333 97.3294 104.363C97.7875 103.305 97.4923 103.332 96.2613 104.464C94.0671 106.48 93.2075 107.136 92.0779 107.655C91.1311 108.089 91.0864 108.072 91.0261 107.24C90.9632 106.371 91.0076 106.225 91.2298 106.571C91.3163 106.706 91.4424 106.824 91.5101 106.834C91.8346 106.881 94.1546 104.997 95.0931 103.925C95.1526 103.856 95.3937 103.586 95.6288 103.322C96.0297 102.874 96.3382 102.46 96.3382 102.37C96.3382 102.33 95.7411 102.369 95.3417 102.436C95.053 102.484 94.8712 102.352 94.8712 102.094C94.8712 101.892 94.2727 100.804 93.5112 99.6235C92.8705 98.6299 92.8842 97.6526 93.534 98.0123C93.6441 98.0733 93.8163 98.1433 93.9166 98.1678C94.1089 98.2148 95.0082 98.9211 95.219 99.1906C95.4411 99.4746 96.1713 99.3163 97.0534 98.7928C97.6102 98.4625 97.2171 97.6804 96.493 97.6779C96.3562 97.6774 96.1015 97.621 95.927 97.5525C95.6098 97.428 95.6097 97.428 94.7848 97.6363C93.8153 97.8811 93.81 97.8806 94.2946 97.5902C95.2018 97.0463 96.3289 96.0786 96.8415 95.4032C97.211 94.9165 97.2106 94.9467 96.8504 94.7779C96.5556 94.6397 96.5556 94.6397 96.7822 94.4156C97.2617 93.9413 97.5226 93.8976 98.307 94.16C98.5914 94.2551 98.9122 94.3329 99.0199 94.3329C99.5022 94.3329 100.006 94.7111 100.006 95.0732C100.006 95.3197 99.8252 95.4552 99.125 95.7343C97.7857 96.2681 96.5161 97.0193 97.3995 96.7553C97.5043 96.7239 98.0593 96.6317 98.6329 96.5503C99.2064 96.4688 99.9014 96.3485 100.177 96.2829C101.546 95.9574 104.113 97.2639 104.113 98.2862C104.113 99.0722 102.93 100.921 101.846 101.829C101.311 102.277 100.503 102.171 100.019 101.591C99.74 101.256 99.7507 101.254 99.1901 101.779C98.6255 102.309 98.6163 102.437 99.1324 102.585C99.9232 102.811 99.9426 102.963 99.2694 103.653C98.3503 104.596 97.8559 105.852 98.2744 106.181C99.0691 106.805 104.984 106.748 105.187 106.114C105.374 105.527 105.084 104.156 104.518 102.953C104.488 102.889 104.91 103.369 105.456 104.019C106.841 105.669 106.87 105.699 107.422 106.038C107.925 106.347 107.998 106.44 108 106.774C108.003 107.392 107.362 107.769 106.021 107.937C105.151 108.046 101.265 108.005 100.336 107.877ZM96.6824 101.064C97.4662 100.697 97.8233 99.697 97.1449 99.7685C96.9273 99.7914 96.6364 99.757 96.1796 99.6543C95.4112 99.4815 95.4148 99.4802 95.5631 99.8728C95.6337 100.06 95.6781 100.398 95.6781 100.748C95.6781 101.396 95.8534 101.451 96.6824 101.064ZM100.432 101.135C100.894 100.914 101.059 100.49 101.4 98.6524C101.549 97.8516 101.547 97.7234 101.379 97.4559C101.198 97.1672 100.411 97.073 99.5397 97.2358C99.0094 97.3348 98.9301 98.19 99.4401 98.3085C100.591 98.5759 100.821 99.1158 99.8591 99.293C99.1153 99.43 99.0222 99.4809 98.8839 99.8257C98.7226 100.228 98.7184 100.214 99.0023 100.214C99.5129 100.214 100.195 100.845 99.9722 101.112C99.8176 101.298 100.067 101.31 100.432 101.135ZM101.473 105.784C101.473 105.771 101.637 105.678 101.838 105.577C102.495 105.246 102.855 104.727 102.294 104.921C100.41 105.573 100.042 105.512 100.042 104.551C100.042 104.074 100.042 104.074 100.424 103.801C101.246 103.215 101.741 102.549 101.507 102.345C101.382 102.236 101.382 102.232 101.525 102.232C101.881 102.232 102.498 102.883 102.499 103.26C102.5 103.459 102.435 103.524 101.777 103.981C101.373 104.262 101.417 104.288 102.154 104.206C102.735 104.141 102.767 104.129 103.054 103.877C103.413 103.562 103.431 103.561 104.077 103.837C104.753 104.126 104.769 104.214 104.209 104.556C103.975 104.698 103.668 104.91 103.527 105.026C103.059 105.41 101.473 105.995 101.473 105.784Z" fill="black"/>
<path id="flower" d="M97.1258 19.6569C97.4207 19.2075 97.5199 19.0007 97.5408 18.7914C97.5806 18.3928 97.4027 17.1671 97.2637 16.8812C97.1982 16.7467 96.8977 16.392 96.5959 16.0931C95.9429 15.4463 95.7234 15.1247 95.6722 14.7401C95.6388 14.4889 95.6846 14.3537 96.0518 13.6188C96.4236 12.8748 96.4679 12.7426 96.455 12.4135C96.439 12.0071 96.4459 11.9716 96.5312 12.0208C96.5632 12.0393 96.5844 12.1551 96.5783 12.2781C96.5601 12.648 96.7988 13.2171 97.3613 14.1443C97.8767 14.9938 98.1961 15.7149 98.1203 15.8573C97.9272 16.2197 97.7954 16.9278 97.8282 17.4257C97.8489 17.7391 97.8802 18.034 97.8977 18.0811C97.9536 18.2311 98.2984 17.5435 98.4856 16.9087C98.7932 15.8658 98.9426 15.5799 99.4152 15.1291C99.6588 14.8966 99.9202 14.711 100.034 14.6893C100.143 14.6686 100.459 14.6843 100.737 14.724C101.745 14.8684 102.049 14.7064 102.675 13.6915C103.268 12.7306 103.284 12.7552 102.141 12.9163C100.797 13.1057 100.561 13.2384 100.057 14.0907C99.8298 14.4758 99.5625 14.8369 99.3775 15.0094C99.2098 15.1657 98.9845 15.3861 98.8768 15.4992C98.681 15.7048 98.681 15.7048 98.6424 15.4347C98.5909 15.0743 98.6434 14.8095 98.8816 14.2275C99.3967 12.9689 99.8078 12.1327 100.092 11.7658C100.38 11.393 100.566 11.0671 100.634 10.8139C100.658 10.7225 100.571 10.6018 100.29 10.34C99.0346 9.17164 98.1208 7.28978 98.7604 7.19106C98.8497 7.17728 98.9654 7.20511 99.0175 7.25291C99.0697 7.30071 99.1703 7.39392 99.2412 7.46005C99.3736 7.58352 99.4742 7.53676 99.3803 7.39539C99.3519 7.35262 99.3254 7.08939 99.3214 6.81045C99.3137 6.27705 99.4572 5.90291 99.7192 5.77329C99.7955 5.73554 99.9525 5.54949 100.068 5.35984C100.303 4.97398 100.538 4.85497 100.946 4.91428C101.093 4.93558 101.25 4.89673 101.358 4.81264C101.511 4.69288 101.564 4.69241 101.8 4.80875C101.991 4.90322 102.104 5.00494 102.194 5.1649C102.287 5.33086 102.376 5.40931 102.537 5.46803C102.681 5.52034 102.792 5.60596 102.864 5.72005C102.966 5.88284 102.983 5.88884 103.155 5.82364C103.359 5.74612 103.587 5.84911 103.71 6.07497C103.782 6.20544 103.822 6.22158 104.069 6.21729C104.555 6.2088 104.86 6.27952 105.212 6.48267C105.813 6.83007 106.031 7.34084 105.77 7.79285C105.702 7.91113 105.664 8.01851 105.687 8.03148C105.709 8.04446 105.871 8.04207 106.046 8.02618C106.338 7.99956 106.512 8.04682 106.758 8.22007C106.903 8.32264 107.004 8.70966 106.922 8.85137C106.852 8.97201 106.866 8.98658 107.18 9.13017C107.46 9.25849 107.52 9.31073 107.574 9.47166C107.666 9.74784 107.451 10.0358 107.001 10.2413C106.63 10.4106 106.63 10.4106 106.705 10.6033C106.764 10.7537 106.749 10.8277 106.639 10.9399C106.449 11.133 106.012 11.3235 105.652 11.3701C105.285 11.4175 105.141 11.6067 105.396 11.7059C105.625 11.7949 105.792 12.0292 105.719 12.1566C105.599 12.3635 105.046 12.402 104.176 12.264C102.972 12.073 102.598 11.9366 101.613 11.3292C100.8 10.8282 100.8 10.8282 100.53 11.2793C100.381 11.5275 100.133 11.9283 99.9784 12.1701C99.8239 12.4119 99.4904 13.0797 99.2372 13.6539C98.6624 14.9581 98.5243 15.766 98.9699 15.218C99.0727 15.0916 99.3059 14.8682 99.4882 14.7216C99.7695 14.4953 99.8581 14.3725 100.073 13.9102C100.316 13.3891 100.342 13.3567 100.688 13.1653C100.95 13.0203 101.35 12.92 102.144 12.8009C102.746 12.7105 103.272 12.6554 103.311 12.6783C103.362 12.7075 103.216 12.9913 102.829 13.621C102.07 14.8523 101.912 14.9437 100.721 14.8381C100.146 14.787 100.049 14.8007 99.7711 14.9727C99.3156 15.2543 98.9039 15.9042 98.647 16.7472C98.5359 17.1114 98.3859 17.5581 98.3135 17.7397C98.1804 18.0739 97.9182 18.4153 97.8329 18.3657C97.7776 18.3335 97.6635 17.1877 97.688 16.9108C97.6974 16.8045 97.7734 16.5298 97.8568 16.3003C98.071 15.7115 98.0074 15.4622 97.3794 14.4298C97.0865 13.9481 96.7824 13.404 96.7037 13.2207C96.625 13.0374 96.5549 12.8841 96.5478 12.88C96.5036 12.8541 95.8094 14.2358 95.7726 14.4231C95.681 14.8889 95.9383 15.355 96.6573 16.026C97.3687 16.6898 97.5344 17.0392 97.6496 18.1185C97.7181 18.7598 97.7181 18.7598 97.4179 19.3299C97.2527 19.6435 97.0323 19.9782 96.928 20.0737C96.7808 20.2085 96.8252 20.115 97.1258 19.6569ZM100.752 10.3065C100.892 9.90927 100.886 9.87162 100.627 9.53816C100.341 9.17001 99.9898 8.40921 99.9762 8.12733C99.9707 8.01434 100.017 7.83337 100.08 7.72518C100.173 7.56392 100.264 7.51932 100.584 7.47778C100.975 7.42711 100.975 7.42711 101.04 7.13234C101.076 6.97023 101.251 6.54598 101.43 6.18957C101.736 5.57952 101.769 5.53716 101.995 5.4663C102.227 5.39386 102.233 5.38569 102.157 5.24787C102.113 5.16912 101.999 5.03817 101.904 4.95687C101.766 4.83976 101.69 4.81934 101.542 4.8586C101.297 4.92299 101.284 4.95591 101.432 5.13258C101.507 5.22269 101.534 5.35194 101.501 5.4664C101.377 5.89842 101.057 5.79086 101.11 5.33508C101.128 5.18043 101.122 5.0418 101.096 5.02702C100.977 4.95803 100.478 5.05354 100.32 5.17574C100.049 5.38465 100.034 5.5952 100.275 5.78767C100.484 5.95441 100.685 6.44633 100.564 6.49612C100.439 6.54805 100.185 6.34054 100.06 6.08275C99.8955 5.74481 99.7557 5.76095 99.5505 6.14156C99.3942 6.43164 99.3775 6.71559 99.4769 7.39743C99.5061 7.59767 99.5197 7.77928 99.5071 7.80099C99.4946 7.82271 99.3694 7.72428 99.2289 7.58225C98.9983 7.34915 98.9588 7.32628 98.8236 7.34715C98.3232 7.42437 99.1232 9.05008 100.192 10.1271C100.421 10.3588 100.62 10.5552 100.633 10.5636C100.645 10.5719 100.699 10.4563 100.752 10.3065ZM101.054 9.49323C101.116 9.39635 101.25 9.28541 101.352 9.24668C101.629 9.14166 101.863 9.3101 102.098 9.78299C102.225 10.0388 102.362 10.2185 102.482 10.2878C102.695 10.4108 103.097 10.3721 103.693 10.1711C103.918 10.0954 104.331 10.0473 104.686 10.0555C105.546 10.0754 105.928 9.99212 106.026 9.76364C106.094 9.60417 106.078 9.56454 105.897 9.44011C105.768 9.35221 105.582 9.29153 105.405 9.28045C105.058 9.2586 105.023 9.24034 105.093 9.11875C105.224 8.89152 104.98 8.67153 104.612 8.6862C104.382 8.6954 104.382 8.6954 104.431 8.50833C104.458 8.40544 104.43 8.24203 104.369 8.1452C104.267 7.98383 104.239 7.9684 104.035 7.96041C103.752 7.94934 103.512 8.10726 103.203 8.50633C102.912 8.88365 102.684 9.03708 102.362 9.0739C102.159 9.09699 102.106 9.07882 102.014 8.9561C101.86 8.74907 101.894 8.35908 102.085 8.14607C102.171 8.04973 102.583 7.8227 103 7.64157C103.872 7.26288 104.128 7.07882 104.052 6.88464C103.978 6.69428 103.796 6.68412 103.63 6.86113C103.469 7.03206 103.104 7.13426 103.033 7.02789C102.941 6.88881 103.185 6.61474 103.428 6.58474C103.582 6.56564 103.654 6.52405 103.632 6.46645C103.595 6.37053 103.409 6.39867 102.852 6.58442C102.6 6.6683 102.493 6.75058 102.378 6.94824C102.191 7.27018 102.026 7.41825 101.945 7.33743C101.847 7.23965 101.928 7.06894 102.187 6.82369C102.396 6.62638 102.424 6.56772 102.414 6.34918C102.399 6.03735 102.292 5.57564 102.224 5.53676C102.196 5.52065 102.071 5.56553 101.945 5.63649C101.739 5.75263 101.686 5.83392 101.419 6.45046C101.046 7.30973 101.018 7.50767 101.245 7.69835C101.443 7.86455 101.596 8.30577 101.508 8.45837C101.358 8.71703 101.015 8.34414 100.958 7.86037C100.939 7.70786 100.92 7.5671 100.915 7.54755C100.91 7.52801 100.778 7.52912 100.621 7.55001C100.131 7.61514 99.9822 8.06548 100.244 8.68767C100.396 9.05062 100.81 9.68945 100.885 9.67788C100.915 9.67319 100.991 9.5901 101.054 9.49323ZM103.589 10.7611C103.721 10.7783 104.037 10.7716 104.291 10.7463C105.076 10.6678 105.344 10.7534 105.42 11.1081C105.466 11.3206 105.466 11.3206 105.84 11.2244C106.251 11.1187 106.485 10.9829 106.6 10.7824C106.714 10.586 106.559 10.4803 106.177 10.4935C105.761 10.5079 105.552 10.4614 105.606 10.367C105.657 10.2796 106 10.2418 106.303 10.2902C106.79 10.3681 107.63 9.76251 107.5 9.42687C107.438 9.26683 107.02 9.12653 106.714 9.16248C106.385 9.2009 106.354 9.14709 106.622 9.00391C107.031 8.78483 106.835 8.24671 106.308 8.14095C106.089 8.09708 105.754 8.14987 105.428 8.27957C105.318 8.32342 105.343 8.26073 105.559 7.95642C105.815 7.59779 105.824 7.56493 105.747 7.3007C105.549 6.62625 104.996 6.28997 104.122 6.31278C103.77 6.32196 103.66 6.50722 103.917 6.65593C104.438 6.95638 104.199 7.30034 103.226 7.65149C102.273 7.99547 101.905 8.33913 102.048 8.7503C102.184 9.1387 102.624 9.01531 103.092 8.45779C103.425 8.06113 103.62 7.91821 103.898 7.86608C104.235 7.80289 104.506 8.0175 104.523 8.36063C104.532 8.53623 104.56 8.57465 104.69 8.59007C104.956 8.62149 105.242 8.82292 105.277 9.00419C105.308 9.16128 105.323 9.17182 105.56 9.20276C105.697 9.22073 105.876 9.27358 105.957 9.3202C106.15 9.43202 106.261 9.69121 106.177 9.8369C106.068 10.0254 105.508 10.1627 104.923 10.1446C104.182 10.1218 103.913 10.1606 103.444 10.3582C103.224 10.451 102.992 10.515 102.928 10.5004C102.864 10.4858 102.798 10.4974 102.782 10.5263C102.749 10.5823 103.18 10.7076 103.589 10.7611Z" fill="black"/>
</g>
</g>
</svg>
