<svg width="110" height="110" viewBox="0 0 110 110" fill="none" xmlns="http://www.w3.org/2000/svg">
<g id="Frame 1">
<g id="lines">
<path id="-30" d="M55 55L100 77" stroke="black" stroke-width="0.3"/>
<path id="-60" d="M55 55L82 97" stroke="black" stroke-width="0.3"/>
<path id="-90" d="M55 55V105" stroke="black" stroke-width="0.3"/>
<path id="-120" d="M55 55L28 97" stroke="black" stroke-width="0.3"/>
<path id="-150" d="M55 55L10 77" stroke="black" stroke-width="0.3"/>
<path id="180" d="M55 55H5" stroke="black" stroke-width="0.3"/>
<path id="150" d="M55 55L10 33.311" stroke="black" stroke-width="0.3"/>
<path id="120" d="M55 55L28 13" stroke="black" stroke-width="0.3"/>
<path id="90" d="M55 55V5" stroke="black" stroke-width="0.3"/>
<path id="60" d="M55 55L82 13" stroke="black" stroke-width="0.3"/>
<path id="30" d="M55 55L100 33" stroke="black" stroke-width="0.3"/>
<path id="0" d="M55 55H105" stroke="black" stroke-width="0.3"/>
</g>
<g id="side">
<path id="flower" d="M96.7576 14.4931C96.851 14.4674 96.9311 14.411 96.9821 14.3353C97.0579 14.2226 97.0671 14.0753 97.1358 13.9583C97.203 13.8439 97.3221 13.7664 97.3966 13.6565C97.4399 13.5925 97.4671 13.5186 97.4833 13.4422C97.4982 13.3712 97.5039 13.2978 97.5056 13.2241C97.5072 13.153 97.5053 13.0815 97.5039 13.0101C97.5023 12.9287 97.5015 12.8473 97.4997 12.7658C97.4973 12.6545 97.4932 12.543 97.4957 12.4322C97.4977 12.3405 97.5043 12.2493 97.4999 12.1569C97.4953 12.062 97.4791 11.9666 97.4595 11.8717C97.447 11.8109 97.4329 11.7495 97.4043 11.692C97.3831 11.6492 97.3543 11.6095 97.3281 11.5688C97.2926 11.5137 97.2619 11.4565 97.2293 11.4C97.1893 11.3306 97.1461 11.2617 97.0899 11.2019C97.0155 11.1227 96.9211 11.0626 96.8394 10.9899C96.7706 10.9286 96.711 10.8586 96.6601 10.7841C96.6157 10.7192 96.5777 10.6508 96.5454 10.5808C96.5079 10.4996 96.4777 10.4152 96.4674 10.3299C96.4578 10.251 96.4654 10.173 96.4693 10.0951C96.4731 10.0209 96.4736 9.94563 96.4909 9.87454C96.5109 9.79217 96.5527 9.71819 96.5934 9.64468C96.6261 9.58539 96.6584 9.52582 96.69 9.46585C96.737 9.37638 96.7825 9.28605 96.8278 9.19566C96.8829 9.08566 96.9379 8.97546 96.9848 8.86153C97.0627 8.67286 97.1185 8.47347 97.137 8.26636C97.1439 8.18945 97.1457 8.11151 97.1397 8.03317C97.1365 7.99133 97.131 7.9494 97.1234 7.9076L97.1289 7.83923L97.161 7.9864C97.177 8.05944 97.1903 8.13282 97.196 8.20611C97.2017 8.27941 97.2011 8.35243 97.2089 8.42578C97.2152 8.48421 97.2274 8.54259 97.2415 8.60063C97.2734 8.73107 97.3156 8.86012 97.3593 8.98871C97.4094 9.13601 97.4616 9.2833 97.5305 9.42557C97.5818 9.5314 97.642 9.63394 97.7027 9.7361C97.7636 9.83874 97.8251 9.94115 97.8841 10.0446C97.9408 10.1441 97.9954 10.2449 98.0348 10.3499C98.069 10.4411 98.0916 10.5358 98.0924 10.6291C98.0934 10.7342 98.0667 10.8356 98.0241 10.9283C97.9821 11.0197 97.925 11.1029 97.8751 11.1902C97.8109 11.3027 97.7588 11.4221 97.7197 11.5463C97.6898 11.6128 97.6726 11.6854 97.6689 11.76C97.6639 11.8635 97.6847 11.9691 97.6933 12.0739C97.7006 12.1627 97.699 12.251 97.6953 12.3388C97.6907 12.4442 97.683 12.5492 97.6798 12.6548C97.6775 12.7301 97.6774 12.8056 97.6797 12.8813L97.6772 12.9515L97.7002 12.8631C97.7114 12.8358 97.7247 12.8094 97.7399 12.7842C97.7772 12.7229 97.8259 12.6692 97.8658 12.6096C97.891 12.5719 97.9126 12.5321 97.9341 12.4923C97.9561 12.4515 97.9781 12.4107 97.9997 12.3697C98.0696 12.2373 98.136 12.1029 98.193 11.9642C98.2688 11.7799 98.328 11.5888 98.3931 11.4001C98.451 11.232 98.5137 11.0658 98.5852 10.9036C98.6411 10.7767 98.7025 10.652 98.7788 10.5363C98.8713 10.396 98.9848 10.2701 99.1011 10.1474C99.182 10.062 99.2647 9.9776 99.3583 9.90424C99.4317 9.84662 99.5143 9.79493 99.6117 9.77826C99.7208 9.75958 99.8374 9.78631 99.9511 9.79789C100.071 9.81008 100.19 9.80539 100.306 9.78997C100.446 9.77133 100.583 9.73688 100.708 9.68257C100.794 9.64515 100.875 9.59831 100.947 9.54126C101.012 9.48971 101.068 9.43014 101.122 9.36851C101.308 9.15576 101.46 8.91704 101.586 8.66547C101.659 8.51805 101.724 8.36604 101.803 8.22116C101.858 8.11985 101.919 8.02215 101.987 7.92871L102.056 7.87665L101.984 7.88779C101.899 7.90098 101.813 7.90646 101.726 7.91131C101.577 7.91962 101.431 7.94127 101.289 7.97368C101.125 8.01098 100.967 8.06253 100.817 8.12752C100.712 8.16642 100.609 8.21099 100.511 8.26095C100.4 8.31677 100.295 8.3793 100.193 8.44666C100.134 8.48573 100.076 8.52656 100.024 8.57404C99.9565 8.63683 99.901 8.71055 99.8513 8.78743C99.8083 8.85397 99.7694 8.92306 99.7325 8.99314C99.6884 9.07689 99.647 9.16212 99.6085 9.24868C99.575 9.32064 99.5378 9.3908 99.4971 9.45889C99.4605 9.52021 99.4208 9.58002 99.3727 9.63333C99.3181 9.69389 99.253 9.74547 99.1986 9.80615C99.1556 9.85403 99.1194 9.90723 99.0777 9.9561C98.9991 10.048 98.9013 10.1238 98.8224 10.2155C98.7851 10.2589 98.7522 10.3056 98.7169 10.3505C98.6837 10.3927 98.6483 10.4332 98.6124 10.4734C98.5829 10.5065 98.5531 10.5393 98.523 10.5718L98.4682 10.6299L98.4848 10.458C98.5112 10.372 98.5324 10.2842 98.5482 10.1949C98.5638 10.1071 98.5741 10.0179 98.5931 9.93095C98.6126 9.84195 98.641 9.75581 98.669 9.66968C98.7021 9.56797 98.7352 9.46522 98.7908 9.37449C98.8468 9.28319 98.9246 9.20597 98.9775 9.11285C99.051 8.98367 99.0729 8.83067 99.1257 8.69133C99.1451 8.64016 99.1687 8.59083 99.194 8.54248C99.2261 8.48127 99.2609 8.42155 99.2917 8.35969C99.3468 8.24896 99.3887 8.13183 99.4417 8.02001C99.4888 7.92051 99.5445 7.82543 99.6038 7.73279C99.6455 7.66773 99.6891 7.60382 99.7333 7.54038C99.7904 7.45843 99.8487 7.37725 99.9085 7.2972C99.9917 7.18602 100.078 7.07699 100.156 6.96204C100.219 6.86837 100.277 6.76996 100.31 6.66125C100.343 6.55273 100.35 6.43618 100.383 6.32733C100.416 6.21494 100.474 6.11298 100.517 6.00429C100.578 5.84693 100.607 5.6754 100.683 5.52519C100.736 5.42278 100.81 5.33166 100.904 5.26198C100.934 5.23955 100.968 5.21897 101.007 5.21133C101.055 5.20188 101.108 5.21339 101.154 5.2377C101.192 5.2578 101.226 5.28631 101.253 5.3186C101.281 5.35088 101.303 5.38693 101.32 5.42409C101.344 5.47332 101.36 5.52452 101.377 5.57556C101.401 5.65021 101.425 5.72507 101.457 5.79797C101.484 5.86072 101.518 5.92336 101.57 5.97189C101.609 6.00767 101.656 6.03459 101.707 6.04888C101.743 6.05904 101.78 6.06288 101.816 6.06125C101.857 6.05943 101.895 6.05088 101.934 6.04253C101.984 6.03169 102.035 6.02113 102.084 6.00761C102.127 5.99576 102.169 5.98164 102.21 5.96609C102.265 5.94553 102.318 5.92231 102.366 5.8916C102.385 5.87985 102.402 5.86704 102.42 5.85503C102.459 5.8297 102.5 5.808 102.542 5.78747C102.564 5.77647 102.587 5.7658 102.609 5.75544C102.622 5.74982 102.634 5.74429 102.646 5.73862C102.659 5.73282 102.672 5.72686 102.685 5.72182C102.694 5.7182 102.704 5.71506 102.713 5.71192C102.743 5.70233 102.772 5.69278 102.803 5.68589C102.838 5.67793 102.874 5.67356 102.911 5.66948C102.945 5.66567 102.979 5.66209 103.013 5.65934C103.039 5.6572 103.066 5.65556 103.093 5.65407C103.126 5.65224 103.158 5.65062 103.191 5.64799C103.226 5.64519 103.26 5.64126 103.295 5.63792C103.329 5.6346 103.364 5.63186 103.399 5.62908C103.417 5.6276 103.435 5.62612 103.453 5.62473C103.478 5.62286 103.503 5.62115 103.527 5.6192C103.539 5.61821 103.552 5.61716 103.564 5.61655C103.584 5.6156 103.603 5.61569 103.622 5.61459C103.663 5.61227 103.702 5.60467 103.74 5.59359C103.774 5.58359 103.807 5.57079 103.84 5.55806C103.872 5.54559 103.904 5.53317 103.936 5.52008C103.978 5.50298 104.019 5.48476 104.059 5.46562C104.111 5.44101 104.162 5.41454 104.204 5.37742C104.224 5.3602 104.241 5.34084 104.257 5.32083C104.287 5.28392 104.314 5.24355 104.323 5.19669C104.328 5.17343 104.329 5.14915 104.33 5.12511C104.331 5.09806 104.333 5.07018 104.323 5.04358C104.317 5.02659 104.306 5.01115 104.295 4.9956C104.283 4.97739 104.271 4.95827 104.254 4.94432C104.241 4.9342 104.226 4.92741 104.211 4.92081C104.185 4.90916 104.158 4.89763 104.131 4.88909C104.101 4.87976 104.071 4.8741 104.04 4.86786C104.001 4.85975 103.961 4.85058 103.921 4.84782C103.874 4.84458 103.828 4.8503 103.784 4.85897C103.743 4.86682 103.704 4.87711 103.665 4.88975L103.608 4.90003C103.624 4.88293 103.64 4.86566 103.655 4.84821C103.677 4.82399 103.698 4.79898 103.71 4.76907C103.728 4.7258 103.725 4.67541 103.714 4.62735C103.708 4.6041 103.701 4.58077 103.688 4.55947C103.674 4.53558 103.653 4.5151 103.632 4.49597C103.615 4.48104 103.598 4.4666 103.578 4.4561C103.549 4.44081 103.516 4.43465 103.485 4.43468C103.461 4.4347 103.438 4.438 103.416 4.44251C103.329 4.45987 103.25 4.49498 103.171 4.53027C103.156 4.53714 103.141 4.54402 103.126 4.55093L103.152 4.49135L103.241 4.36259C103.268 4.31234 103.279 4.25361 103.273 4.19447C103.268 4.13533 103.245 4.07594 103.207 4.02448C103.172 3.97513 103.122 3.93209 103.062 3.91364C103.017 3.89946 102.97 3.90051 102.924 3.9052C102.904 3.90727 102.885 3.91001 102.865 3.91419C102.847 3.91814 102.829 3.92336 102.812 3.92888C102.773 3.94094 102.736 3.95451 102.7 3.97085C102.68 3.9796 102.661 3.98919 102.645 4.00152C102.633 4.01017 102.623 4.0201 102.612 4.02976C102.593 4.04681 102.573 4.06313 102.557 4.0824C102.529 4.11436 102.513 4.15334 102.49 4.18867C102.485 4.19734 102.479 4.2058 102.473 4.21423C102.456 4.23845 102.439 4.26257 102.42 4.28502C102.404 4.304 102.386 4.32174 102.369 4.3405C102.35 4.36241 102.332 4.38569 102.315 4.40894C102.294 4.43717 102.272 4.46542 102.253 4.49513C102.236 4.52156 102.221 4.54911 102.203 4.57538C102.185 4.60327 102.164 4.62962 102.143 4.65556C102.122 4.68131 102.101 4.70673 102.077 4.72994C102.062 4.74393 102.047 4.7571 102.031 4.76995C102.012 4.78538 101.993 4.80038 101.974 4.81602C101.96 4.8278 101.947 4.83999 101.931 4.84943C101.92 4.85568 101.908 4.86066 101.897 4.86641C101.875 4.87821 101.855 4.89323 101.832 4.90479C101.806 4.91785 101.778 4.9263 101.75 4.93407C101.734 4.93849 101.717 4.9427 101.701 4.94732C101.683 4.95261 101.665 4.95845 101.645 4.95997C101.632 4.96099 101.619 4.96005 101.605 4.95817C101.584 4.95518 101.564 4.94983 101.543 4.94255C101.518 4.93341 101.492 4.9208 101.473 4.90183C101.463 4.89153 101.454 4.87958 101.448 4.86699C101.44 4.8515 101.435 4.83509 101.431 4.81864C101.425 4.79636 101.422 4.77383 101.421 4.75147C101.42 4.7193 101.423 4.6876 101.423 4.65554C101.423 4.63866 101.422 4.62168 101.422 4.60482C101.423 4.58853 101.424 4.57236 101.426 4.5565C101.435 4.5053 101.457 4.45843 101.484 4.41469C101.507 4.37591 101.534 4.339 101.566 4.30644C101.577 4.29476 101.589 4.28366 101.601 4.27238C101.643 4.23323 101.682 4.19178 101.727 4.15611C101.77 4.12189 101.818 4.09333 101.865 4.06397C101.944 4.01469 102.021 3.96292 102.101 3.91418C102.238 3.83045 102.381 3.75583 102.524 3.6796C102.711 3.57932 102.9 3.47293 103.029 3.31284C103.06 3.27458 103.088 3.23208 103.095 3.18269C103.098 3.16509 103.098 3.14694 103.096 3.12881C103.092 3.10008 103.085 3.0714 103.074 3.0435C103.066 3.02209 103.056 3.00086 103.041 2.98223C103.025 2.96216 103.004 2.9457 102.981 2.93276C102.937 2.90714 102.885 2.89521 102.835 2.88951C102.789 2.88429 102.743 2.88401 102.699 2.89366C102.679 2.89828 102.659 2.90512 102.639 2.9126C102.6 2.92779 102.562 2.94565 102.525 2.96447C102.485 2.98441 102.446 3.00568 102.414 3.03447C102.394 3.05251 102.377 3.07327 102.36 3.09416C102.347 3.11013 102.335 3.12643 102.327 3.14527C102.319 3.1641 102.316 3.18599 102.323 3.20669C102.328 3.22128 102.338 3.23474 102.351 3.24475C102.364 3.25476 102.38 3.26132 102.396 3.26363C102.418 3.26694 102.44 3.26178 102.462 3.25976C102.479 3.25827 102.496 3.25849 102.512 3.25584C102.536 3.2519 102.558 3.24169 102.578 3.22943C102.599 3.21601 102.619 3.20007 102.637 3.18336C102.658 3.16485 102.678 3.14531 102.695 3.12394C102.709 3.10637 102.722 3.08763 102.734 3.06879C102.751 3.0442 102.767 3.01942 102.781 2.99373C102.817 2.9291 102.843 2.85902 102.859 2.78586C102.868 2.75825 102.873 2.72948 102.875 2.70015C102.879 2.64725 102.872 2.59255 102.854 2.53983C102.845 2.49287 102.825 2.44673 102.796 2.40505C102.777 2.37615 102.753 2.34938 102.726 2.32578C102.692 2.29758 102.648 2.28072 102.605 2.27951C102.556 2.27812 102.51 2.29745 102.48 2.33119L102.332 2.47861L102.269 2.54676L102.298 2.42132C102.309 2.39475 102.317 2.36655 102.321 2.33751C102.323 2.32046 102.324 2.30313 102.324 2.28568C102.313 2.25639 102.297 2.22841 102.275 2.20363C102.252 2.17663 102.224 2.15346 102.192 2.13597C102.164 2.12039 102.133 2.10921 102.102 2.10307C102.089 2.10045 102.075 2.09874 102.062 2.09797C102.031 2.09711 102.001 2.09842 101.971 2.10191C101.933 2.10636 101.896 2.11435 101.86 2.12572C101.826 2.1316 101.793 2.1417 101.762 2.1557C101.713 2.17801 101.669 2.21029 101.636 2.24998L101.432 2.48725L101.182 2.90913L101.014 3.32691L100.879 3.77738L100.803 4.01982L100.804 4.33251L100.864 4.47004C100.868 4.49883 100.882 4.52753 100.905 4.54958C100.927 4.57164 100.957 4.58687 100.987 4.59181C101.019 4.5969 101.051 4.59097 101.076 4.57545L101.129 4.39153L101.093 4.15745L100.926 3.99258C100.875 3.93737 100.807 3.89576 100.734 3.87536C100.656 3.85338 100.572 3.85626 100.502 3.88339L100.262 4.03978L100.086 4.38484L100.269 5.21436C100.325 5.3323 100.39 5.44775 100.461 5.55985C100.546 5.6944 100.641 5.8241 100.745 5.94753C100.86 6.07039 100.987 6.18356 101.123 6.28467C101.252 6.38045 101.39 6.46532 101.532 6.54088C101.669 6.61369 101.812 6.67826 101.96 6.7188C102.121 6.76288 102.288 6.77782 102.449 6.7625L102.805 6.71436L103.144 6.68198L103.59 6.62634L104.028 6.50464C104.084 6.48909 104.14 6.47128 104.189 6.44374C104.238 6.41619 104.281 6.3804 104.322 6.34339C104.416 6.25916 104.505 6.16941 104.575 6.06676C104.609 6.01762 104.64 5.96273 104.638 5.90112C104.636 5.86308 104.622 5.82352 104.594 5.79274C104.575 5.7709 104.549 5.75409 104.522 5.7414C104.495 5.72871 104.467 5.71993 104.439 5.71196C104.392 5.69882 104.344 5.68768 104.297 5.68372C104.213 5.67675 104.131 5.69229 104.055 5.71649C104.033 5.72324 104.012 5.73081 103.994 5.74324C103.977 5.75567 103.963 5.77359 103.96 5.79494C103.958 5.80801 103.961 5.82188 103.967 5.83471C103.973 5.84753 103.981 5.85933 103.992 5.86954C104.018 5.89543 104.055 5.91053 104.092 5.91524C104.128 5.91994 104.164 5.91495 104.198 5.90573C104.284 5.88218 104.355 5.83212 104.426 5.78332C104.502 5.73027 104.58 5.67778 104.657 5.62586L105.03 5.39653C105.08 5.3661 105.128 5.33258 105.166 5.29052C105.204 5.24845 105.234 5.19981 105.269 5.15556C105.293 5.12618 105.319 5.09899 105.342 5.06879C105.364 5.0386 105.383 5.00478 105.388 4.967C105.394 4.9277 105.385 4.88514 105.363 4.84817C105.341 4.8112 105.306 4.78006 105.266 4.76125C105.243 4.73974 105.218 4.72112 105.19 4.70624C105.158 4.68937 105.124 4.67731 105.09 4.67075C105.005 4.64791 104.917 4.64245 104.833 4.65489C104.769 4.6645 104.708 4.68471 104.653 4.71439L104.61 4.75264C104.622 4.74323 104.634 4.73449 104.646 4.72647C104.701 4.69199 104.765 4.67097 104.815 4.63163C104.852 4.60255 104.88 4.56407 104.899 4.52168C104.918 4.4793 104.927 4.43313 104.936 4.38708L104.965 4.23768C104.969 4.21673 104.973 4.19561 104.973 4.17394C104.974 4.15227 104.971 4.13018 104.964 4.10867C104.951 4.06565 104.923 4.02667 104.896 3.98841C104.869 3.94967 104.842 3.9102 104.811 3.87384C104.78 3.83748 104.744 3.80402 104.701 3.78125C104.64 3.74896 104.57 3.7403 104.504 3.74741C104.439 3.75453 104.378 3.77645 104.321 3.80187C104.179 3.86405 104.051 3.94839 103.943 4.0508L103.848 4.13893C103.872 4.1069 103.896 4.0755 103.921 4.04482C103.989 3.96143 104.063 3.88332 104.133 3.80109C104.182 3.74259 104.229 3.68171 104.265 3.61414C104.3 3.54659 104.324 3.47183 104.325 3.39338C104.327 3.28754 104.288 3.1809 104.248 3.07741C104.216 2.99535 104.183 2.91231 104.128 2.83941C104.058 2.7451 103.956 2.67265 103.845 2.62651C103.769 2.59484 103.689 2.57492 103.609 2.56173C103.464 2.53788 103.318 2.53575 103.179 2.55954C103.045 2.58242 102.92 2.62876 102.797 2.67658C102.589 2.75738 102.383 2.84312 102.173 2.91949C102.064 2.95877 101.954 2.99574 101.854 3.04836C101.754 3.10097 101.662 3.17055 101.604 3.26364C101.557 3.3398 101.534 3.43043 101.537 3.5231C101.538 3.54144 101.54 3.56007 101.546 3.57808C101.552 3.59608 101.563 3.61358 101.579 3.62576C101.59 3.63407 101.603 3.63966 101.617 3.64218C101.63 3.6447 101.643 3.64419 101.656 3.64112C101.681 3.63499 101.701 3.61879 101.715 3.59869C101.728 3.57859 101.735 3.55475 101.739 3.53042C101.743 3.5061 101.743 3.48112 101.744 3.45628C101.746 3.37545 101.754 3.29474 101.779 3.21951C101.813 3.11555 101.877 3.02554 101.923 2.92681C101.975 2.81655 102.004 2.69427 101.999 2.56864C101.996 2.48281 101.977 2.39659 101.965 2.31051C101.948 2.18914 101.943 2.06608 101.901 1.94762C101.875 1.87463 101.835 1.80516 101.789 1.73964C101.758 1.69633 101.725 1.65413 101.683 1.61977C101.654 1.59573 101.62 1.57574 101.585 1.56238C101.55 1.54901 101.512 1.54237 101.475 1.54453C101.428 1.54736 101.384 1.56516 101.347 1.59063C101.311 1.6161 101.281 1.64903 101.255 1.6841C101.165 1.8039 101.116 1.95081 101.106 2.10328C101.103 2.15262 101.104 2.2026 101.108 2.25267C101.11 2.27453 101.113 2.29691 101.123 2.31756C101.128 2.3262 101.133 2.33446 101.14 2.34149C101.147 2.34852 101.156 2.35428 101.165 2.35745C101.179 2.36212 101.194 2.36096 101.207 2.35636C101.22 2.35175 101.231 2.34392 101.24 2.33531C101.261 2.31718 101.278 2.29535 101.293 2.27227C101.319 2.23013 101.338 2.18325 101.347 2.13351C101.354 2.09193 101.354 2.04852 101.346 2.00544C101.341 1.97313 101.331 1.94036 101.312 1.9117C101.295 1.88671 101.271 1.86575 101.246 1.84864C101.195 1.81489 101.135 1.79558 101.076 1.78558C101.047 1.78068 101.018 1.7779 100.989 1.77656C100.821 1.7688 100.655 1.81165 100.532 1.90558C100.377 2.02375 100.299 2.21389 100.282 2.40872C100.273 2.51385 100.279 2.62197 100.303 2.72861C100.32 2.80248 100.345 2.87713 100.393 2.94105C100.406 2.95934 100.422 2.9768 100.441 2.99016C100.46 3.00352 100.483 3.01256 100.506 3.01236C100.521 3.01222 100.536 3.00752 100.55 3.00086C100.583 2.98437 100.608 2.95513 100.618 2.92027C100.629 2.87695 100.617 2.82909 100.606 2.78322C100.594 2.73208 100.583 2.67939 100.552 2.63349C100.523 2.58816 100.477 2.55323 100.429 2.52354C100.404 2.50781 100.378 2.49315 100.351 2.48246C100.307 2.46549 100.26 2.45894 100.216 2.46216C100.171 2.46539 100.128 2.47825 100.091 2.49831C100.062 2.51364 100.036 2.5331 100.013 2.55491C99.9787 2.58707 99.9518 2.6254 99.9275 2.66499L99.8431 2.80239C99.8098 2.85647 99.7794 2.91274 99.762 2.97423C99.7446 3.03572 99.7389 3.10062 99.7303 3.16461C99.7141 3.28522 99.6846 3.40468 99.6977 3.52869C99.7062 3.60891 99.7324 3.68835 99.7475 3.7684C99.763 3.85037 99.7668 3.93259 99.7718 4.01459C99.7754 4.07437 99.7797 4.13431 99.777 4.19346C99.7761 4.21139 99.7747 4.22923 99.7726 4.24693L99.7328 4.21264C99.6968 4.18291 99.6649 4.14874 99.6383 4.11154C99.5969 4.05363 99.5686 3.98879 99.5243 3.93264C99.5123 3.91733 99.499 3.9027 99.484 3.88978C99.4598 3.86894 99.4313 3.85271 99.401 3.84264C99.3843 3.83764 99.3673 3.83413 99.3502 3.83219C99.328 3.82967 99.3058 3.82982 99.2842 3.83261C99.2496 3.83609 99.2177 3.85125 99.1957 3.87479C99.1711 3.901 99.1591 3.93607 99.1509 3.9712C99.1365 4.03277 99.1322 4.09712 99.134 4.16177C99.1391 4.34172 99.1916 4.5223 99.247 4.70003C99.2732 4.78401 99.3002 4.86796 99.3335 4.9504C99.3958 5.10478 99.4797 5.25259 99.5641 5.39945C99.6571 5.56134 99.7514 5.72314 99.8622 5.87623C100.043 6.12607 100.266 6.35027 100.511 6.54762C100.881 6.84478 101.304 7.08311 101.753 7.23142C101.872 7.27086 101.993 7.30395 102.115 7.33156C102.34 7.38255 102.568 7.41487 102.794 7.42519C102.889 7.42954 102.984 7.43 103.08 7.43304C103.178 7.43616 103.276 7.44199 103.372 7.43195C103.482 7.42046 103.586 7.38788 103.676 7.33391C103.724 7.30451 103.769 7.26759 103.793 7.21779C103.811 7.18113 103.817 7.13941 103.821 7.09822C103.825 7.0702 103.827 7.04185 103.824 7.01315C103.82 6.98445 103.81 6.95502 103.789 6.93193C103.775 6.91662 103.757 6.90466 103.738 6.89553C103.719 6.8864 103.7 6.87993 103.68 6.87419C103.601 6.85159 103.52 6.83964 103.441 6.84209C103.378 6.84404 103.317 6.85498 103.258 6.87088C103.22 6.88102 103.183 6.89319 103.146 6.90247C103.118 6.90912 103.09 6.9143 103.065 6.92382C103.04 6.9327 103.019 6.94659 103 6.9622L102.953 7.00024C102.942 7.00906 102.931 7.01865 102.926 7.03156C102.923 7.03802 102.922 7.04514 102.923 7.05232C102.924 7.0595 102.926 7.06671 102.931 7.07298C102.937 7.08115 102.945 7.08751 102.955 7.09178C102.964 7.09605 102.974 7.09835 102.984 7.09962C103.009 7.10277 103.033 7.09983 103.057 7.09445C103.131 7.07732 103.193 7.03625 103.25 6.99127C103.348 6.91398 103.432 6.82343 103.512 6.73013C103.562 6.67273 103.611 6.61238 103.631 6.53928C103.643 6.49565 103.645 6.4491 103.649 6.40326C103.651 6.37438 103.654 6.34515 103.648 6.31585C103.64 6.27666 103.615 6.23923 103.581 6.21299C103.562 6.19851 103.54 6.18745 103.52 6.17426C103.493 6.15585 103.468 6.13322 103.438 6.11778C103.415 6.10549 103.389 6.09814 103.364 6.09432C103.318 6.08747 103.271 6.09183 103.23 6.10684C103.189 6.12879 103.148 6.14974 103.106 6.16967C103.066 6.18888 103.024 6.20717 102.982 6.22242C102.954 6.23238 102.925 6.24104 102.896 6.24903C102.761 6.28645 102.62 6.30927 102.477 6.31898C102.317 6.32982 102.151 6.32396 101.992 6.27607C101.876 6.24126 101.766 6.18504 101.662 6.12138C101.56 6.05858 101.462 5.98816 101.37 5.91116L101.199 5.76104C101.16 5.71835 101.119 5.67795 101.074 5.64024C101.045 5.61544 101.015 5.59181 100.984 5.56945C100.957 5.56027 100.929 5.55324 100.901 5.54846C100.833 5.53689 100.765 5.53869 100.701 5.55369" stroke="#070707" stroke-width="0.2" stroke-miterlimit="10.9" stroke-linecap="round" stroke-linejoin="round"/>
<g id="japan">
<path id="path1" d="M99.7022 88.3762C99.7326 88.4277 99.7436 88.4874 99.7354 88.5449C99.7272 88.6024 99.6997 88.6563 99.6707 88.7084L99.4584 89.0897C99.2816 89.4072 99.0859 89.7176 98.8489 90.0038C98.5654 90.3462 98.2398 90.662 97.8796 90.9442" stroke="#070707" stroke-width="0.5" stroke-miterlimit="10.9" stroke-linecap="round" stroke-linejoin="round"/>
<path id="path2" d="M95.9041 91.2861L95.6899 91.0962C95.7795 91.1465 95.854 91.2171 95.9041 91.2992C95.9727 91.4115 95.9944 91.5402 96.0221 91.6652C96.0817 91.9339 96.1531 92.2009 96.1932 92.4724L96.4422 94.1608C96.4874 94.4667 96.5309 94.7727 96.568 95.0794L96.6266 95.4631" stroke="#070707" stroke-width="0.5" stroke-miterlimit="10.9" stroke-linecap="round" stroke-linejoin="round"/>
<path id="path3" d="M96.1168 91.4447C97.1769 91.2447 98.2447 91.0756 99.3178 90.9379C100.546 90.7803 101.787 90.6636 103.027 90.7003C103.092 90.7023 103.158 90.7047 103.221 90.718C103.284 90.7313 103.346 90.7564 103.39 90.7978C103.446 90.8493 103.47 90.9216 103.474 90.9922C103.477 91.0628 103.462 91.1329 103.448 91.2026C103.363 91.6344 103.329 92.0732 103.233 92.5034C103.145 92.8984 103.006 93.2834 102.854 93.6632C102.716 94.0057 102.568 94.3447 102.408 94.6797" stroke="#070707" stroke-width="0.5" stroke-miterlimit="10.9" stroke-linecap="round" stroke-linejoin="round"/>
<path id="path4" d="M99.3354 91.1093C99.452 91.201 99.5419 91.3183 99.5946 91.4473C99.6981 91.7009 99.655 91.9791 99.6328 92.2476C99.6059 92.5732 99.6117 92.9002 99.6142 93.2267C99.617 93.6093 99.6153 93.992 99.6088 94.3746" stroke="#070707" stroke-width="0.5" stroke-miterlimit="10.9" stroke-linecap="round" stroke-linejoin="round"/>
<path id="path5" d="M96.3783 93.159L103.25 92.4501" stroke="#070707" stroke-width="0.5" stroke-miterlimit="10.9" stroke-linecap="round" stroke-linejoin="round"/>
<path id="path6" d="M96.5589 94.9073L102.649 94.1458" stroke="#070707" stroke-width="0.5" stroke-miterlimit="10.9" stroke-linecap="round" stroke-linejoin="round"/>
<path id="path7" d="M98.0419 95.3125C98.089 95.4505 98.1096 95.5954 98.1025 95.7394C98.0892 96.0114 97.979 96.2716 97.8755 96.5284C97.7299 96.8894 97.5944 97.2552 97.3963 97.5967C97.2034 97.9293 96.954 98.234 96.7043 98.5365C96.4575 98.8352 96.2086 99.1341 95.9192 99.4022C95.4854 99.8039 94.9629 100.132 94.3888 100.364" stroke="#070707" stroke-width="0.5" stroke-miterlimit="10.9" stroke-linecap="round" stroke-linejoin="round"/>
<path id="path8" d="M99.9223 94.9574C99.9781 95.0524 100.023 95.1523 100.056 95.2551C100.182 95.6501 100.129 96.0688 100.12 96.4788C100.107 97.0582 100.186 97.6378 100.154 98.2166C100.135 98.573 100.073 98.9285 100.092 99.2849C100.111 99.6413 100.222 100.009 100.499 100.271C100.632 100.397 100.798 100.494 100.98 100.557C101.263 100.655 101.574 100.67 101.879 100.681C103.027 100.722 104.179 100.717 105.322 100.618C105.612 100.593 105.912 100.559 106.162 100.428C106.322 100.344 106.456 100.221 106.541 100.076C106.655 99.88 106.676 99.6446 106.598 99.4359" stroke="#070707" stroke-width="0.5" stroke-miterlimit="10.9" stroke-linecap="round" stroke-linejoin="round"/>
<path id="path9" d="M102.603 95.3417C102.655 95.4374 102.678 95.5445 102.669 95.6499C102.657 95.7958 102.587 95.9326 102.521 96.0668C102.255 96.5993 102.02 97.147 101.669 97.6403C101.57 97.7795 101.462 97.9138 101.36 98.051C101.325 98.0968 101.291 98.1437 101.274 98.1962C101.265 98.2224 101.26 98.2499 101.262 98.2772C101.264 98.3045 101.273 98.3316 101.289 98.3549C101.31 98.3848 101.343 98.4077 101.38 98.4214C101.416 98.4352 101.457 98.4402 101.497 98.4387C101.577 98.4356 101.653 98.4075 101.726 98.3786C101.863 98.324 101.998 98.2647 102.137 98.2122C102.305 98.1483 102.478 98.0946 102.651 98.0393C103.182 97.869 103.707 97.6831 104.224 97.4818L104.479 97.3905" stroke="#070707" stroke-width="0.5" stroke-miterlimit="10.9" stroke-linecap="round" stroke-linejoin="round"/>
<path id="path10" d="M103.918 96.6864L105.307 98.3649" stroke="#070707" stroke-width="0.5" stroke-miterlimit="10.9" stroke-linecap="round" stroke-linejoin="round"/>
</g>
</g>
<g id="numbers">
<path id="path1_2" d="M7.15454 4.82259L5.94214 5.46374L7.09149 4.8244L7.46044 4.82366L7.51306 9.16258" stroke="#070707" stroke-width="0.4" stroke-miterlimit="10.9"/>
<path id="path2_2" d="M10.6405 5.74315C10.7169 5.5308 10.8229 5.34089 10.9504 5.18824C11.1837 4.909 11.4693 4.71807 11.7682 4.64729C12.0113 4.58971 12.264 4.63203 12.4955 4.75374C12.6788 4.85012 12.8498 4.99592 12.9961 5.18255C13.1759 5.412 13.3185 5.70506 13.3966 6.03294C13.5101 6.5098 13.4836 7.03561 13.3988 7.52482C13.3608 7.74368 13.3111 7.95992 13.2344 8.15646C13.1247 8.43771 12.9609 8.67286 12.7687 8.83741C12.595 8.9862 12.399 9.07783 12.1988 9.11606C12.0314 9.14802 11.8607 9.14312 11.6943 9.102C11.4743 9.04762 11.2611 8.92899 11.077 8.74642C10.8918 8.56263 10.7369 8.31416 10.6326 8.02639C10.4906 7.63459 10.445 7.1786 10.4729 6.7381C10.4795 6.63452 10.4899 6.53146 10.5043 6.42953C10.5174 6.19066 10.564 5.95575 10.6405 5.74315Z" stroke="#070707" stroke-width="0.4" stroke-miterlimit="10.9"/>
<path id="path3_2" d="M17.3289 4.91089L16.1165 5.55204L17.2658 4.91271L17.6348 4.91196L17.6874 9.25089" stroke="#070707" stroke-width="0.4" stroke-miterlimit="10.9"/>
<path id="path4_2" d="M6.00109 13.4451C6.07746 13.2327 6.18354 13.0428 6.31104 12.8902C6.54428 12.6109 6.82993 12.42 7.12877 12.3492C7.37188 12.2916 7.62457 12.3339 7.85609 12.4557C8.03943 12.552 8.21039 12.6978 8.35666 12.8845C8.53649 13.1139 8.67907 13.407 8.75714 13.7349C8.8707 14.2117 8.84408 14.7375 8.75938 15.2267C8.72148 15.4456 8.67185 15.662 8.59504 15.8584C8.49425 16.1161 8.34761 16.3348 8.17577 16.4959C7.99094 16.6691 7.7777 16.7759 7.55937 16.818C7.39203 16.8503 7.22132 16.8451 7.05491 16.8039C6.8349 16.7494 6.62172 16.6309 6.43764 16.4483C6.25234 16.2646 6.09752 16.0161 5.99323 15.7283C5.85124 15.3365 5.80561 14.8805 5.8335 14.44C5.84005 14.3364 5.85053 14.2334 5.86486 14.1314C5.87801 13.8926 5.92463 13.6577 6.00109 13.4451Z" stroke="#070707" stroke-width="0.4" stroke-miterlimit="10.9"/>
<path id="path5_2" d="M11.7787 12.5082L10.5663 13.1494L11.7157 12.5101L12.0846 12.5093L12.1372 16.8482" stroke="#070707" stroke-width="0.4" stroke-miterlimit="10.9"/>
<path id="path6_2" d="M15.2994 13.4337C15.3758 13.2213 15.4819 13.0314 15.6094 12.8788C15.8426 12.5995 16.1282 12.4086 16.4271 12.3378C16.6702 12.2803 16.9229 12.3226 17.1544 12.4443C17.3378 12.5406 17.5088 12.6863 17.655 12.8731C17.8347 13.1027 17.9769 13.3959 18.0555 13.7235C18.1699 14.2002 18.146 14.7271 18.0577 15.2154C18.0182 15.4335 17.9661 15.6476 17.8934 15.847C17.7881 16.1356 17.6369 16.395 17.4423 16.5601C17.2659 16.7099 17.0612 16.7769 16.8577 16.8066C16.6899 16.831 16.5197 16.8314 16.3532 16.7925C16.1328 16.7411 15.9198 16.6203 15.736 16.437C15.551 16.2525 15.396 16.0045 15.2915 15.7169C15.1493 15.3253 15.1039 14.8691 15.1318 14.4286C15.1384 14.3251 15.1489 14.222 15.1632 14.1201C15.1763 13.8812 15.2229 13.6463 15.2994 13.4337Z" stroke="#070707" stroke-width="0.4" stroke-miterlimit="10.9"/>
<path id="path7_2" d="M7.13419 20.1091L5.92178 20.7503L7.07114 20.1109L7.44009 20.1102L7.49271 24.4491" stroke="#070707" stroke-width="0.4" stroke-miterlimit="10.9"/>
<path id="path8_2" d="M10.6595 21.0365C10.7358 20.8242 10.8419 20.6343 10.9694 20.4816C11.2026 20.2024 11.4883 20.0115 11.7871 19.9407C12.0303 19.8831 12.2829 19.9254 12.5145 20.0471C12.6978 20.1435 12.8688 20.2893 13.015 20.4759C13.1948 20.7054 13.3372 20.9986 13.4155 21.3263C13.5295 21.8031 13.5041 22.3294 13.4177 22.8182C13.3791 23.0367 13.3283 23.252 13.2534 23.4498C13.1555 23.7083 13.016 23.935 12.8458 24.0968C12.6591 24.2743 12.4395 24.3709 12.2177 24.4094C12.0502 24.4386 11.8797 24.4356 11.7133 24.3954C11.4931 24.3421 11.28 24.2227 11.096 24.0398C10.9109 23.8558 10.7559 23.6075 10.6516 23.3198C10.5095 22.928 10.464 22.472 10.4919 22.0315C10.4984 21.9279 10.5089 21.8248 10.5232 21.7229C10.5364 21.4841 10.583 21.2491 10.6595 21.0365Z" stroke="#070707" stroke-width="0.4" stroke-miterlimit="10.9"/>
<path id="path9_2" d="M17.163 20.2007L15.9506 20.8418L17.0999 20.2025L17.4689 20.2017L17.5215 24.5407" stroke="#070707" stroke-width="0.4" stroke-miterlimit="10.9"/>
</g>
</g>
</svg>
